Coordinates
version=1
nRows=11
nColumns=40
inDegrees=yes

Units are S.I. units (second, meters, Newtons, ...)
If the header above contains a line with 'inDegrees', this indicates whether rotational values are in degrees (yes) or radians (no).

endheader
time	pelvis_tilt	pelvis_list	pelvis_rotation	pelvis_tx	pelvis_ty	pelvis_tz	hip_flexion_r	hip_adduction_r	hip_rotation_r	knee_angle_r	knee_angle_r_beta	ankle_angle_r	subtalar_angle_r	mtp_angle_r	hip_flexion_l	hip_adduction_l	hip_rotation_l	knee_angle_l	knee_angle_l_beta	ankle_angle_l	subtalar_angle_l	mtp_angle_l	lumbar_extension	lumbar_bending	lumbar_rotation	arm_flex_r	arm_add_r	arm_rot_r	elbow_flex_r	pro_sup_r	wrist_flex_r	wrist_dev_r	arm_flex_l	arm_add_l	arm_rot_l	elbow_flex_l	pro_sup_l	wrist_flex_l	wrist_dev_l
      3.83500000	      6.31642965	     -1.74299883	     -0.65574746	     -0.22695722	      1.53466214	     -0.86060441	    -14.40538166	     -6.57344545	     -7.11255768	      4.91811172	      0.08583724	    -38.17137382	      0.00000000	      0.00000000	    -15.26502262	    -11.66410252	    -13.98843176	      4.66069115	      0.08134441	    -32.84069663	      0.00000000	      0.00000000	     -1.71983616	     -1.10323505	     -1.32824233	    -25.40515869	    -59.57889050	     34.94648383	    112.61450316	     87.98179783	      0.00000000	      0.00000000	    -20.24044269	    -59.07927989	     51.45346520	     99.26313043	     88.17852976	      0.00000000	      0.00000000
      3.84000000	      6.15983207	     -1.64951984	     -0.67266790	     -0.22722815	      1.53390406	     -0.86082561	    -14.16371893	     -6.69886820	     -6.52266135	      5.13384718	      0.08960254	    -38.09446880	      0.00000000	      0.00000000	    -15.13458519	    -11.54243494	    -13.27154682	      4.64543246	      0.08107809	    -32.60880830	      0.00000000	      0.00000000	     -1.49622492	     -1.22280102	     -1.35798629	    -25.44276400	    -59.37472880	     34.80728461	    112.51278276	     87.93327221	      0.00000000	      0.00000000	    -21.23762301	    -58.77132136	     50.26257833	     99.17127120	     88.21910969	      0.00000000	      0.00000000
      3.84500000	      5.97209784	     -1.64280091	     -0.69552246	     -0.22752006	      1.53282983	     -0.86101495	    -13.86545064	     -6.73904289	     -6.04708798	      5.37331769	      0.09378209	    -38.02561569	      0.00000000	      0.00000000	    -14.93136296	    -11.52175387	    -12.71103449	      4.71767884	      0.08233903	    -32.39448743	      0.00000000	      0.00000000	     -1.25758839	     -1.24404372	     -1.29052378	    -25.64058813	    -59.17501259	     34.54093223	    112.42682002	     87.94678171	      0.00000000	      0.00000000	    -21.89057309	    -58.49453947	     49.44081836	     99.06257337	     88.20885613	      0.00000000	      0.00000000
      3.85000000	      5.92034017	     -1.67627366	     -0.76315016	     -0.22773061	      1.53169993	     -0.86111387	    -13.70263240	     -6.74009852	     -5.61885488	      5.58368387	      0.09745367	    -37.95932772	      0.00000000	      0.00000000	    -14.90851409	    -11.53085120	    -12.32030308	      4.78366456	      0.08349070	    -32.03143022	      0.00000000	      0.00000000	     -1.18671571	     -1.22234887	     -1.21773817	    -25.84582836	    -58.98222918	     34.23664761	    112.39631576	     88.04188911	      0.00000000	      0.00000000	    -22.76065111	    -58.18406677	     48.35790632	     98.97380933	     88.19699548	      0.00000000	      0.00000000
      3.85500000	      5.77778221	     -1.68368273	     -0.65589601	     -0.22829354	      1.53029892	     -0.86142258	    -13.43879565	     -6.74040299	     -5.26205020	      5.87850815	      0.10259932	    -37.84430004	      0.00000000	      0.00000000	    -14.69936294	    -11.56417912	    -11.59722327	      4.84438838	      0.08455053	    -31.79462937	      0.00000000	      0.00000000	     -1.04020598	     -1.23965177	     -1.19111806	    -26.08732603	    -58.67572738	     33.81787252	    112.26717992	     87.96878764	      0.00000000	      0.00000000	    -22.96535378	    -58.03358988	     48.03602016	     98.86417356	     88.21755322	      0.00000000	      0.00000000
      3.86000000	      5.84730837	     -1.64012532	     -0.64573252	     -0.22866580	      1.52887126	     -0.86161960	    -13.43572272	     -6.81750577	     -4.96024506	      6.05522795	      0.10568366	    -37.88447149	      0.00000000	      0.00000000	    -14.73597310	    -11.53138285	    -11.33995620	      4.92906457	      0.08602841	    -31.73072333	      0.00000000	      0.00000000	     -1.10435768	     -1.29360947	     -1.08201558	    -26.15769352	    -58.42596004	     33.67813378	    112.22351383	     87.97443609	      0.00000000	      0.00000000	    -23.07931746	    -57.92466146	     47.94149442	     98.82138326	     88.19983760	      0.00000000	      0.00000000
      3.86500000	      5.63932276	     -1.67917873	     -0.61987357	     -0.22934982	      1.52670130	     -0.86185051	    -13.07130599	     -6.79969612	     -4.38777051	      6.35973707	      0.11099835	    -37.67067884	      0.00000000	      0.00000000	    -14.44538317	    -11.58745143	    -10.64308275	      5.13968603	      0.08970444	    -31.38783583	      0.00000000	      0.00000000	     -0.96838021	     -1.26421968	     -0.92582414	    -26.99920537	    -58.06803669	     32.53905134	    112.21516542	     88.00382578	      0.00000000	      0.00000000	    -23.67891385	    -57.72426945	     46.96915673	     98.80754949	     88.19950309	      0.00000000	      0.00000000
      3.87000000	      5.66576093	     -1.68670434	     -0.56006753	     -0.22979149	      1.52469755	     -0.86212364	    -13.09113497	     -6.81165096	     -4.35705813	      6.38434892	      0.11142791	    -37.67388805	      0.00000000	      0.00000000	    -14.43147545	    -11.61230872	    -10.60867328	      5.14300625	      0.08976239	    -31.38639241	      0.00000000	      0.00000000	     -0.97374374	     -1.26464085	     -0.87829963	    -26.99845946	    -58.02496031	     32.54102644	    112.21933714	     88.00420525	      0.00000000	      0.00000000	    -23.69618036	    -57.69615458	     46.96880265	     98.80724898	     88.19929789	      0.00000000	      0.00000000
      3.87500000	      5.54823924	     -1.75593201	     -0.45108669	     -0.23034286	      1.52222203	     -0.86218281	    -12.81743487	     -6.72362221	     -3.69311531	      6.74906689	      0.11779344	    -37.37658950	      0.00000000	      0.00000000	    -14.24079618	    -11.74383186	     -9.47729128	      5.28104422	      0.09217161	    -31.13192224	      0.00000000	      0.00000000	     -0.92318100	     -1.23378810	     -0.86712424	    -27.35481062	    -57.58859919	     31.98861645	    112.11957111	     87.99445301	      0.00000000	      0.00000000	    -24.04274760	    -57.57507208	     46.42377369	     98.76007111	     88.19683459	      0.00000000	      0.00000000
      3.88000000	      5.63333779	     -1.79747917	     -0.39620445	     -0.23084899	      1.51968948	     -0.86235321	    -12.82479786	     -6.70281690	     -3.51846174	      6.93464543	      0.12103240	    -37.32091023	      0.00000000	      0.00000000	    -14.25665078	    -11.81696731	     -9.22641705	      5.40641784	      0.09435979	    -31.08372688	      0.00000000	      0.00000000	     -1.04994492	     -1.19449622	     -0.82375799	    -27.44091175	    -57.42406258	     31.93438167	    112.10746422	     88.00390822	      0.00000000	      0.00000000	    -24.13225826	    -57.52718141	     46.33466763	     98.79312419	     88.19866547	      0.00000000	      0.00000000
      3.88500000	      5.64785866	     -1.79925447	     -0.32897790	     -0.23140205	      1.51684103	     -0.86253392	    -12.81663127	     -6.71668125	     -3.47817320	      6.99237867	      0.12204003	    -37.19637025	      0.00000000	      0.00000000	    -14.20512346	    -11.85337468	     -9.17588819	      5.45256872	      0.09516528	    -31.03729307	      0.00000000	      0.00000000	     -1.08794817	     -1.20932244	     -0.79754374	    -27.43023086	    -57.39442158	     31.90839015	    112.09983583	     87.86564781	      0.00000000	      0.00000000	    -24.16444147	    -57.51095921	     46.33411783	     98.79519177	     88.05272541	      0.00000000	      0.00000000
